<?xml version="1.0" encoding="UTF-8" standalone="no"?>
<!DOCTYPE svg PUBLIC "-//W3C//DTD SVG 1.1//EN" "http://www.w3.org/Graphics/SVG/1.1/DTD/svg11.dtd">
<!-- Created with Vectornator (http://vectornator.io/) -->
<svg height="32.0px" stroke-miterlimit="10" style="fill-rule:nonzero;clip-rule:evenodd;stroke-linecap:round;stroke-linejoin:round;" version="1.1" viewBox="0 0 82 32" width="82.0px" xml:space="preserve" xmlns="http://www.w3.org/2000/svg" xmlns:xlink="http://www.w3.org/1999/xlink">
<defs>
<path d="M0.75 16C0.75 7.57766 7.57766 0.75 16 0.75C24.4223 0.75 31.25 7.57766 31.25 16C31.25 24.4223 24.4223 31.25 16 31.25C7.57766 31.25 0.75 24.4223 0.75 16Z" id="Fill"/>
<path d="M25.75 16C25.75 7.57766 32.5777 0.75 41 0.75C49.4223 0.75 56.25 7.57766 56.25 16C56.25 24.4223 49.4223 31.25 41 31.25C32.5777 31.25 25.75 24.4223 25.75 16Z" id="Fill_2"/>
<path d="M50.75 16C50.75 7.57766 57.5777 0.75 66 0.75C74.4223 0.75 81.25 7.57766 81.25 16C81.25 24.4223 74.4223 31.25 66 31.25C57.5777 31.25 50.75 24.4223 50.75 16Z" id="Fill_3"/>
</defs>
<g id="Без-названия">
<g opacity="1">
<use fill="#70bf4f" fill-rule="nonzero" stroke="none" xlink:href="#Fill"/>
<mask height="30.5" id="StrokeMask" maskUnits="userSpaceOnUse" width="30.5" x="0.75" y="0.75">
<rect fill="#000000" height="30.5" stroke="none" width="30.5" x="0.75" y="0.75"/>
<use fill="#ffffff" fill-rule="evenodd" stroke="none" xlink:href="#Fill"/>
</mask>
<use fill="none" mask="url(#StrokeMask)" stroke="#3e3e3e" stroke-linecap="butt" stroke-linejoin="round" stroke-opacity="0.3" stroke-width="4.5" xlink:href="#Fill"/>
</g>
<g opacity="1">
<use fill="#3897f1" fill-rule="nonzero" stroke="none" xlink:href="#Fill_2"/>
<mask height="30.5" id="StrokeMask_2" maskUnits="userSpaceOnUse" width="30.5" x="25.75" y="0.75">
<rect fill="#000000" height="30.5" stroke="none" width="30.5" x="25.75" y="0.75"/>
<use fill="#ffffff" fill-rule="evenodd" stroke="none" xlink:href="#Fill_2"/>
</mask>
<use fill="none" mask="url(#StrokeMask_2)" stroke="#3e3e3e" stroke-linecap="butt" stroke-linejoin="round" stroke-opacity="0.3" stroke-width="4.5" xlink:href="#Fill_2"/>
</g>
<g opacity="1">
<use fill="#a208ba" fill-rule="nonzero" stroke="none" xlink:href="#Fill_3"/>
<mask height="30.5" id="StrokeMask_3" maskUnits="userSpaceOnUse" width="30.5" x="50.75" y="0.75">
<rect fill="#000000" height="30.5" stroke="none" width="30.5" x="50.75" y="0.75"/>
<use fill="#ffffff" fill-rule="evenodd" stroke="none" xlink:href="#Fill_3"/>
</mask>
<use fill="none" mask="url(#StrokeMask_3)" stroke="#3e3e3e" stroke-linecap="butt" stroke-linejoin="round" stroke-opacity="0.4" stroke-width="4.5" xlink:href="#Fill_3"/>
</g>
</g>
</svg>
